<svg xmlns="http://www.w3.org/2000/svg" viewBox="0 0 1024 1024" role="img" aria-label="Agent coding app icon">
  <defs>
    <linearGradient id="bg" x1="140" y1="120" x2="884" y2="904" gradientUnits="userSpaceOnUse">
      <stop offset="0" stop-color="#10161f"/>
      <stop offset="1" stop-color="#0a0f17"/>
    </linearGradient>
    <linearGradient id="ring" x1="300" y1="240" x2="760" y2="800" gradientUnits="userSpaceOnUse">
      <stop offset="0" stop-color="#6ea8ff"/>
      <stop offset="1" stop-color="#7df0d1"/>
    </linearGradient>
    <radialGradient id="glow" cx="0" cy="0" r="1" gradientTransform="translate(580 360) rotate(53) scale(520 430)" gradientUnits="userSpaceOnUse">
      <stop offset="0" stop-color="#3b82f6" stop-opacity="0.32"/>
      <stop offset="1" stop-color="#3b82f6" stop-opacity="0"/>
    </radialGradient>
  </defs>

  <rect x="56" y="56" width="912" height="912" rx="206" fill="url(#bg)"/>
  <rect x="56" y="56" width="912" height="912" rx="206" fill="url(#glow)"/>
  <rect x="56.5" y="56.5" width="911" height="911" rx="205.5" stroke="#ffffff" stroke-opacity="0.12" fill="none"/>

  <circle cx="512" cy="512" r="286" fill="none" stroke="url(#ring)" stroke-opacity="0.46" stroke-width="2"/>

  <g stroke="#f3f7ff" stroke-width="44" stroke-linecap="round" stroke-linejoin="round" fill="none">
    <path d="M406 370 308 512l98 142"/>
    <path d="M618 370 716 512l-98 142"/>
    <path d="M560 338 464 686"/>
  </g>

  <g fill="#dff6ff">
    <circle cx="732" cy="324" r="16"/>
    <path d="M732 266a8 8 0 0 1 8 8v22h22a8 8 0 0 1 0 16h-22v22a8 8 0 0 1-16 0v-22h-22a8 8 0 0 1 0-16h22v-22a8 8 0 0 1 8-8Z"/>
  </g>

  <path d="M278 760h468" stroke="#ffffff" stroke-opacity="0.18" stroke-width="24" stroke-linecap="round"/>
</svg>
